<svg xmlns="http://www.w3.org/2000/svg" viewBox="0 0 36 36" id="css-alt"><path fill="#EFEFEF" d="M8.377 4.167c6.917 0 11.667-3.583 15-3.583S33.71 2.5 33.71 17.833s-9.417 17.583-13.083 17.583C3.46 35.417-3.873 4.167 8.377 4.167z"></path><path fill="#A4AFC1" d="m8.342 4.154 1.415-1.415.707.707-1.415 1.415zM4.277 8.22l1.415-1.415.707.707-1.415 1.415zM4.277 3.27l.707-.707L6.4 3.978l-.707.707zM29.835 25.731c-.827 0-1.5-.673-1.5-1.5s.673-1.5 1.5-1.5 1.5.673 1.5 1.5-.673 1.5-1.5 1.5zm0-2a.5.5 0 1 0 .002 1.002.5.5 0 0 0-.002-1.002z"></path><path fill="#F3F3F1" d="M8.25 6.75h19.5L25.8 26.315 18 29.25l-7.8-2.935z"></path><path fill="#2FDF84" d="M11.511 10.75h12.978l-.497 2.5-5.524 2.5h4.969l-.972 6.987L18 24.75l-4.126-2.038-.375-2.962h2.484l.279 1.5 1.767 1 2.208-1 .466-3.5H13.25l-.329-2 5.547-2.5h-6.293z"></path><path fill="#D5DBE1" d="M12.45 26.315 10.5 6.75H8.25l1.95 19.565L18 29.25l1.125-.423z"></path><path fill="#00B871" d="M13.761 10.75h-2.25l.664 2.5h2.25zM22.487 21.25l.466-3.5h-2.25l-.466 3.5-.958.434 1 .566zM15.171 15.75l5.547-2.5h-2.25l-5.547 2.5.329 2h2.25zM16.124 22.712l-.375-2.962h-2.25l.375 2.962L18 24.75l1.176-.53z"></path><path d="M18 30a.747.747 0 0 1-.264-.048l-7.8-2.935a.749.749 0 0 1-.482-.628L7.504 6.824a.753.753 0 0 1 .19-.578A.753.753 0 0 1 8.25 6h19.5a.75.75 0 0 1 .746.825l-1.95 19.565a.75.75 0 0 1-.482.628l-7.8 2.935A.77.77 0 0 1 18 30zm-7.1-4.223 7.1 2.671 7.1-2.671L26.922 7.5H9.078L10.9 25.777z"></path><path d="M18 25.5a.743.743 0 0 1-.332-.078l-4.126-2.038a.748.748 0 0 1-.412-.578l-.375-2.962a.749.749 0 0 1 .744-.844h2.484a.75.75 0 0 1 .737.613l.215 1.156 1.132.64 1.481-.671.298-2.238H13.25a.75.75 0 0 1-.74-.628l-.329-2a.75.75 0 0 1 .432-.805L14.979 14h-2.804a.75.75 0 0 1-.725-.558l-.664-2.5a.747.747 0 0 1 .725-.942H24.49a.75.75 0 0 1 .735.896l-.497 2.5a.751.751 0 0 1-.426.537L21.944 15h1.493a.753.753 0 0 1 .743.854l-.973 6.987a.751.751 0 0 1-.435.58l-4.465 2.013A.744.744 0 0 1 18 25.5zm-3.433-3.282 3.447 1.703 3.765-1.697.797-5.724h-4.108a.75.75 0 0 1-.309-1.433l5.174-2.341.243-1.226h-11.09l.266 1h5.716a.75.75 0 0 1 .308 1.433l-5.021 2.263.132.804h6.816a.748.748 0 0 1 .743.849l-.466 3.5a.75.75 0 0 1-.434.584l-2.208 1a.753.753 0 0 1-.679-.03l-1.768-1a.748.748 0 0 1-.368-.516l-.164-.887h-1.01l.218 1.718z"></path></svg>