<svg xmlns="http://www.w3.org/2000/svg" viewBox="0 0 36 36" id="javascript"><path fill="#EFEFEF" d="M27.417 3.914C20.502 4.043 15.685.549 12.353.612S2.057 2.721 2.344 18.052s9.744 17.404 13.41 17.336c17.163-.321 23.911-31.703 11.663-31.474z"></path><path fill="#A4AFC1" d="M19.875 3.562h2v1h-2zM14.125 3.562h2v1h-2zM17.625.062h1v2h-1zM32.665 28.75c-.827 0-1.5-.673-1.5-1.5s.673-1.5 1.5-1.5 1.5.673 1.5 1.5-.673 1.5-1.5 1.5zm0-2a.5.5 0 1 0 0 1 .5.5 0 0 0 0-1z"></path><path fill="#2FDF84" d="M6.75 6.75h22.5v22.5H6.75z"></path><path fill="#00B871" d="M6.75 6.75H9v22.5H6.75z"></path><path d="M29.25 30H6.75a.75.75 0 0 1-.75-.75V6.75A.75.75 0 0 1 6.75 6h22.5a.75.75 0 0 1 .75.75v22.5a.75.75 0 0 1-.75.75zM7.5 28.5h21v-21h-21v21z"></path><path d="M15.5 28a3.26 3.26 0 0 1-3.25-3.25h1.5a1.75 1.75 0 1 0 3.5 0v-7h1.5v7A3.254 3.254 0 0 1 15.5 28zM24.25 28c-1.93 0-3.5-1.346-3.5-3h1.5c0 .813.916 1.5 2 1.5s2-.687 2-1.5c0-.736-.746-1.336-2.218-1.782-2.116-.643-3.282-1.785-3.282-3.218 0-1.654 1.57-3 3.5-3s3.5 1.346 3.5 3h-1.5c0-.813-.916-1.5-2-1.5s-2 .687-2 1.5c0 .965 1.39 1.531 2.218 1.782 2.713.823 3.282 2.204 3.282 3.218 0 1.654-1.57 3-3.5 3z"></path></svg>